<svg width="170" height="163" viewBox="0 0 170 163" fill="none" xmlns="http://www.w3.org/2000/svg">
<path d="M139.8 3L21.7002 121.1" stroke="#DDDDDD" stroke-width="5" stroke-linecap="round" stroke-linejoin="round"/>
<path d="M125.3 50.1C129.608 50.1 133.1 46.6079 133.1 42.3C133.1 37.9922 129.608 34.5 125.3 34.5C120.992 34.5 117.5 37.9922 117.5 42.3C117.5 46.6079 120.992 50.1 125.3 50.1Z" stroke="#DDDDDD" stroke-width="5" stroke-linecap="round" stroke-linejoin="round"/>
<path d="M80.5 63.8999L99.3 83.0999L111.6 70.7999C114.1 68.2999 118.2 68.2999 120.7 70.7999L149.8 99.8999" stroke="#DDDDDD" stroke-width="5" stroke-linecap="round" stroke-linejoin="round"/>
<path d="M23.7002 89.6998L60.6002 52.7998C63.1002 50.2998 67.2002 50.2998 69.7002 52.7998L72.3002 55.4998" stroke="#DDDDDD" stroke-width="5" stroke-linecap="round" stroke-linejoin="round"/>
<path d="M14.7 155.1V139.1H17.3V161.7H14.7698L4.01793 145.325L3.09998 143.927V145.6V161.7H0.5V139.1H3.03104L13.7828 155.375L14.7 156.764V155.1Z" fill="#DDDDDD" stroke="#DDDDDD"/>
<path d="M40.743 159.55C39.2393 161.052 37.2686 161.9 34.9004 161.9C32.5302 161.9 30.5582 161.051 29.0539 159.546C26.9257 157.418 26.9004 155.051 26.9004 150.4C26.9004 145.761 26.9229 143.48 29.0577 141.25C30.5615 139.748 32.5321 138.9 34.9004 138.9C37.2706 138.9 39.2425 139.749 40.7468 141.253C42.875 143.382 42.9004 145.749 42.9004 150.4C42.9004 155.039 42.8779 157.32 40.743 159.55ZM38.7642 142.757C37.8641 141.751 36.4305 141.1 34.9004 141.1C33.3665 141.1 31.9296 141.754 31.0298 142.764C30.3658 143.484 29.9752 144.221 29.7588 145.383C29.549 146.511 29.5004 148.057 29.5004 150.4C29.5004 152.743 29.549 154.313 29.7586 155.453C29.9735 156.621 30.3624 157.366 31.0365 158.043C31.9367 159.049 33.3703 159.7 34.9004 159.7C36.4343 159.7 37.8712 159.046 38.7709 158.036C39.435 157.315 39.8256 156.579 40.0419 155.416C40.2517 154.289 40.3004 152.743 40.3004 150.4C40.3004 148.057 40.2517 146.487 40.0421 145.347C39.8273 144.179 39.4384 143.434 38.7642 142.757Z" fill="#DDDDDD" stroke="#DDDDDD"/>
<path d="M63.7002 161.7V139.1H66.3002V161.7H63.7002Z" fill="#DDDDDD" stroke="#DDDDDD"/>
<path d="M93.9194 139.1H96.6998V161.7H93.9998V146.4L93.0472 146.187L87.7822 157.4H85.8125L80.3494 146.181L79.3998 146.4V161.7H76.7998V139.1H79.5822L86.3472 153.512L86.8031 154.483L87.2536 153.51L93.9194 139.1Z" fill="#DDDDDD" stroke="#DDDDDD"/>
<path d="M114.85 139.1L123.086 161.7H120.358L118.874 157.339L118.758 157H118.4H109.1H108.742L108.627 157.339L107.142 161.7H104.415L112.65 139.1H114.85ZM114.275 143.742L113.813 142.358L113.329 143.733L109.629 154.233L109.394 154.9H110.1H117.3H117.994L117.775 154.242L114.275 143.742Z" fill="#DDDDDD" stroke="#DDDDDD"/>
<path d="M142.7 151.9H138.2V149.9H145.8V153V153.008L145.8 153.016C145.898 156.027 145.319 157.782 143.837 159.357C142.143 161.144 140.08 161.9 137.7 161.9C135.427 161.9 133.356 161.048 131.854 159.546C129.726 157.418 129.7 155.051 129.7 150.4C129.7 145.761 129.723 143.48 131.858 141.25C133.361 139.748 135.332 138.9 137.7 138.9C140.083 138.9 141.935 139.683 143.274 140.918C144.479 142.029 145.291 143.526 145.687 145.2H143.088C142.748 143.995 142.159 143.002 141.308 142.291C140.366 141.503 139.146 141.1 137.7 141.1C136.148 141.1 134.826 141.767 133.847 142.746L133.84 142.753L133.833 142.761C133.167 143.482 132.775 144.219 132.559 145.383C132.349 146.511 132.3 148.057 132.3 150.4C132.3 155.066 132.581 156.671 133.829 158.035C134.745 159.063 136.193 159.6 137.7 159.6C139.432 159.6 140.876 158.946 141.88 157.726C142.886 156.602 143.2 155.265 143.2 153.7V152.4V151.9H142.7Z" fill="#DDDDDD" stroke="#DDDDDD"/>
<path d="M169.5 161.7H155.4V139.1H169.5V141.3H158.5H158V141.8V148.7V149.2H158.5H167.8V151.4H158.5H158V151.9V159V159.5H158.5H169.5V161.7Z" fill="#DDDDDD" stroke="#DDDDDD"/>
<path d="M34.0996 110.6H136.2C143.9 110.6 150.2 104.3 150.2 96.6002V30.2002C150.2 22.5002 143.9 16.2002 136.2 16.2002H128" stroke="#DDDDDD" stroke-width="5" stroke-linecap="round" stroke-linejoin="round"/>
<path d="M112.3 16.2002H37.0996C29.3996 16.2002 23.0996 22.5002 23.0996 30.2002V96.6002C23.0996 100 23.9996 101.7 25.1996 103.5" stroke="#DDDDDD" stroke-width="5" stroke-linecap="round" stroke-linejoin="round"/>
</svg>
